<svg version="1.1" id="Layer_1" xmlns="http://www.w3.org/2000/svg" xmlns:xlink="http://www.w3.org/1999/xlink" x="0px" y="0px"
	 width="100%" viewBox="0 0 50 50" enable-background="new 0 0 50 50" xml:space="preserve">
<path fill="#000000" opacity="1.000000" stroke="none" 
	d="
M1.000000,24.000088 
	C1.000000,16.000109 1.000000,8.500109 1.000000,1.000082 
	C17.666630,1.000054 34.333260,1.000054 50.999916,1.000027 
	C50.999947,17.666630 50.999947,34.333260 50.999973,50.999916 
	C34.333370,50.999947 17.666739,50.999947 1.000054,50.999973 
	C1.000000,42.166691 1.000000,33.333378 1.000000,24.000088 
M24.335926,7.024331 
	C23.889765,7.072094 23.443605,7.119858 22.316099,7.022187 
	C21.530642,7.311181 20.745184,7.600173 19.202065,7.976746 
	C17.133268,8.039750 15.064470,8.102755 12.289739,8.012753 
	C11.192415,7.730829 10.095092,7.448905 8.255010,7.019902 
	C7.502875,7.068413 6.750741,7.116924 5.123850,7.019736 
	C4.418217,7.620416 3.108164,8.211206 3.098148,8.823270 
	C2.960876,17.212111 2.919893,25.605762 3.109156,33.992500 
	C3.132090,35.008793 4.997952,36.960247 5.385968,36.814770 
	C6.737495,36.308025 7.814782,35.069847 9.425351,34.069263 
	C9.425351,34.069263 9.855551,34.044174 9.983091,34.734913 
	C10.296269,35.518333 10.609447,36.301758 10.979299,37.932644 
	C11.085250,44.244797 11.085250,44.244797 19.860609,43.973545 
	C21.905685,43.927101 23.950760,43.880657 26.845615,43.966480 
	C28.562510,43.922466 30.279404,43.878452 32.845890,43.964691 
	C34.562130,43.921307 36.278374,43.877926 38.844822,43.964382 
	C40.562096,43.920223 42.279366,43.876068 44.862644,43.958416 
	C48.101383,44.526478 49.161594,43.202900 49.061588,39.929924 
	C48.844543,32.826485 48.858814,25.708218 49.048672,18.603231 
	C49.150867,14.778852 47.621784,13.437338 43.258778,14.043830 
	C42.511162,14.007146 41.763550,13.970461 40.999046,13.084806 
	C40.500065,11.131042 40.263176,7.662627 39.450451,7.521993 
	C37.425285,7.171561 35.138111,8.335309 32.249157,8.739341 
	C30.499125,8.214907 28.749090,7.690474 26.336742,7.024519 
	C25.890396,7.072015 25.444052,7.119510 24.335926,7.024331 
z"/>
<path fill="#F6AE09" opacity="1.000000" stroke="none" 
	d="
M32.956116,8.891207 
	C35.138111,8.335309 37.425285,7.171561 39.450451,7.521993 
	C40.263176,7.662627 40.500065,11.131042 40.691734,13.798388 
	C40.254726,17.285959 40.169415,20.062897 39.985397,22.833277 
	C39.674088,27.520029 39.300362,32.202633 38.597466,36.919624 
	C37.148975,36.672234 36.055893,36.392197 34.972679,35.713913 
	C34.979061,34.519184 34.975578,33.722694 35.133961,32.594604 
	C34.854900,29.529552 34.413967,26.796104 33.981163,23.678789 
	C33.990643,22.529236 33.991993,21.763548 33.951912,20.684059 
	C33.613407,19.583414 33.316330,18.796570 33.028442,17.803005 
	C33.037632,17.596287 33.045902,17.182524 33.334164,17.035305 
	C33.419758,15.548974 33.217094,14.209860 33.010658,12.472672 
	C32.989967,11.013469 32.973042,9.952337 32.956116,8.891207 
z"/>
<path fill="#AF4316" opacity="1.000000" stroke="none" 
	d="
M43.996494,14.168088 
	C47.621784,13.437338 49.150867,14.778852 49.048672,18.603231 
	C48.858814,25.708218 48.844543,32.826485 49.061588,39.929924 
	C49.161594,43.202900 48.101383,44.526478 44.430458,43.437904 
	C43.997677,33.334290 43.997086,23.751188 43.996494,14.168088 
z"/>
<path fill="#B14716" opacity="1.000000" stroke="none" 
	d="
M43.627636,14.105959 
	C43.997086,23.751188 43.997677,33.334290 43.997456,43.374649 
	C42.279366,43.876068 40.562096,43.920223 38.442665,43.514359 
	C38.344635,41.005219 38.648758,38.946098 38.952881,36.886982 
	C39.300362,32.202633 39.674088,27.520029 39.985397,22.833277 
	C40.169415,20.062897 40.254726,17.285959 40.700180,14.222874 
	C41.763550,13.970461 42.511162,14.007146 43.627636,14.105959 
z"/>
<path fill="#FED563" opacity="1.000000" stroke="none" 
	d="
M8.996325,34.109734 
	C7.814782,35.069847 6.737495,36.308025 5.385968,36.814770 
	C4.997952,36.960247 3.132090,35.008793 3.109156,33.992500 
	C2.919893,25.605762 2.960876,17.212111 3.098148,8.823270 
	C3.108164,8.211206 4.418217,7.620416 5.643826,7.489975 
	C6.443090,11.195188 6.545076,14.459789 7.078556,17.652287 
	C7.334586,19.184448 8.406380,20.580292 9.052839,22.264482 
	C8.996943,22.491095 8.893812,22.946365 8.615484,23.097221 
	C8.024261,24.181412 7.711367,25.114746 7.341811,26.378469 
	C7.855541,29.175817 8.425933,31.642775 8.996325,34.109734 
z"/>
<path fill="#B14616" opacity="1.000000" stroke="none" 
	d="
M9.210838,34.089500 
	C8.425933,31.642775 7.855541,29.175817 7.666682,26.372524 
	C8.698822,26.024101 9.349430,26.012012 10.449408,26.000931 
	C13.599032,26.000683 16.299288,25.999426 19.361307,26.000935 
	C20.443432,26.016987 21.163795,26.030268 21.979324,26.364365 
	C23.708809,28.498047 25.343126,30.310911 26.686508,32.176891 
	C26.018953,32.336014 25.642332,32.442020 24.948792,32.516602 
	C24.421906,32.516712 24.211943,32.548241 23.635307,32.473137 
	C22.511456,32.395168 21.754278,32.423828 20.627697,32.360043 
	C19.503820,32.318844 18.749346,32.370094 17.623766,32.340668 
	C16.500008,32.313572 15.747355,32.367153 14.621702,32.339130 
	C13.492128,32.311119 12.735554,32.364712 11.666612,32.369576 
	C10.854680,32.895287 10.355116,33.469730 9.855551,34.044174 
	C9.855551,34.044174 9.425351,34.069263 9.210838,34.089500 
z"/>
<path fill="#FBC641" opacity="1.000000" stroke="none" 
	d="
M12.995673,8.165759 
	C15.064470,8.102755 17.133268,8.039750 19.590366,8.399570 
	C19.642607,13.244680 19.306547,17.666965 18.758574,22.050426 
	C18.546659,22.011604 18.119606,21.952623 17.984119,21.696829 
	C17.267027,20.946974 16.685423,20.452913 15.945078,19.677422 
	C14.871168,18.957685 13.955998,18.519382 13.030104,17.626623 
	C13.011477,14.170031 13.003574,11.167895 12.995673,8.165759 
z"/>
<path fill="#BC5C15" opacity="1.000000" stroke="none" 
	d="
M25.995834,43.834213 
	C23.950760,43.880657 21.905685,43.927101 19.428854,43.493500 
	C19.000471,40.840858 19.003843,38.668270 19.334793,36.398880 
	C20.109375,36.217663 20.556374,36.133240 21.377171,36.094566 
	C22.502329,36.108334 23.253687,36.076344 24.410992,36.088631 
	C25.894281,36.250755 26.971628,36.368599 27.850382,36.767235 
	C27.099804,39.310089 26.547819,41.572151 25.995834,43.834213 
z"/>
<path fill="#C06315" opacity="1.000000" stroke="none" 
	d="
M19.007214,36.495678 
	C19.003843,38.668270 19.000471,40.840858 18.995771,43.423035 
	C11.085250,44.244797 11.085250,44.244797 11.135201,37.343540 
	C11.577302,36.583752 11.828276,36.371429 12.413790,36.147537 
	C13.523672,36.134041 14.263788,36.090481 15.377426,36.094845 
	C16.501925,36.106804 17.252901,36.070835 18.256924,36.145256 
	C18.675716,36.335655 18.841465,36.415665 19.007214,36.495678 
z"/>
<path fill="#F8B821" opacity="1.000000" stroke="none" 
	d="
M32.602638,8.815273 
	C32.973042,9.952337 32.989967,11.013469 32.697952,12.622681 
	C30.573257,14.841185 30.270607,16.263849 33.045902,17.182524 
	C33.045902,17.182524 33.037632,17.596287 32.681534,17.816849 
	C31.547726,18.715141 30.770018,19.392874 29.741613,20.029465 
	C29.325434,19.952280 29.159948,19.916233 28.819994,19.548607 
	C28.096703,15.200034 27.547880,11.183037 26.999058,7.166040 
	C28.749090,7.690474 30.499125,8.214907 32.602638,8.815273 
z"/>
<path fill="#FAC134" opacity="1.000000" stroke="none" 
	d="
M18.970486,22.089251 
	C19.306547,17.666965 19.642607,13.244680 19.969196,8.355782 
	C20.745184,7.600173 21.530642,7.311181 22.657387,7.549576 
	C23.358782,12.724629 23.718891,17.372293 23.928310,22.284779 
	C23.181976,23.362629 22.586330,24.175657 21.685371,24.878735 
	C20.644648,24.311228 19.909235,23.853670 19.152113,23.175779 
	C19.043509,22.672915 18.990204,22.384182 18.970486,22.089251 
z"/>
<path fill="#FDCF55" opacity="1.000000" stroke="none" 
	d="
M12.642706,8.089256 
	C13.003574,11.167895 13.011477,14.170031 12.920348,17.880756 
	C12.511279,19.045380 12.201241,19.501417 11.650982,20.061764 
	C10.978806,20.454243 10.546848,20.742414 9.848021,20.711891 
	C9.386689,15.984458 9.192229,11.575719 8.997768,7.166981 
	C10.095092,7.448905 11.192415,7.730829 12.642706,8.089256 
z"/>
<path fill="#B85615" opacity="1.000000" stroke="none" 
	d="
M26.420725,43.900345 
	C26.547819,41.572151 27.099804,39.310089 27.856865,36.656311 
	C28.061943,36.264595 28.025156,36.045429 28.395992,36.087547 
	C29.512392,36.098972 30.257956,36.068279 31.340754,36.100021 
	C32.122032,36.268074 32.566071,36.373692 33.008736,36.857983 
	C32.670338,39.435917 32.333317,41.635181 31.996296,43.834442 
	C30.279404,43.878452 28.562510,43.922466 26.420725,43.900345 
z"/>
<path fill="#B54F15" opacity="1.000000" stroke="none" 
	d="
M32.421093,43.899567 
	C32.333317,41.635181 32.670338,39.435917 33.324314,36.746330 
	C34.081783,36.208057 34.522297,36.160107 34.962814,36.112160 
	C36.055893,36.392197 37.148975,36.672234 38.597466,36.919624 
	C38.648758,38.946098 38.344635,41.005219 38.017563,43.449440 
	C36.278374,43.877926 34.562130,43.921307 32.421093,43.899567 
z"/>
<path fill="#FED25C" opacity="1.000000" stroke="none" 
	d="
M8.626390,7.093441 
	C9.192229,11.575719 9.386689,15.984458 9.791649,20.943512 
	C10.002149,21.493826 9.886964,21.956448 9.692595,21.978600 
	C9.498224,22.000750 9.108734,22.037870 9.108734,22.037870 
	C8.406380,20.580292 7.334586,19.184448 7.078556,17.652287 
	C6.545076,14.459789 6.443090,11.195188 6.081203,7.562824 
	C6.750741,7.116924 7.502875,7.068413 8.626390,7.093441 
z"/>
<path fill="#F9BE2F" opacity="1.000000" stroke="none" 
	d="
M24.078999,22.019955 
	C23.718891,17.372293 23.358782,12.724629 22.998058,7.622293 
	C23.443605,7.119858 23.889765,7.072094 24.667370,7.546117 
	C25.357941,12.055055 25.717064,16.042206 25.934141,20.279877 
	C25.221064,21.026918 24.650030,21.523438 24.078999,22.019955 
z"/>
<path fill="#F9BC29" opacity="1.000000" stroke="none" 
	d="
M26.076187,20.029356 
	C25.717064,16.042206 25.357941,12.055055 24.998260,7.617455 
	C25.444052,7.119510 25.890396,7.072015 26.667900,7.095280 
	C27.547880,11.183037 28.096703,15.200034 28.455990,19.587322 
	C27.536367,19.981527 26.806276,20.005442 26.076187,20.029356 
z"/>
<path fill="#FDCF53" opacity="1.000000" stroke="none" 
	d="
M12.044024,36.117474 
	C11.828276,36.371429 11.577302,36.583752 11.106863,36.919807 
	C10.609447,36.301758 10.296269,35.518333 9.919321,34.389542 
	C10.355116,33.469730 10.854680,32.895287 11.671276,32.737930 
	C12.006879,34.142502 12.025451,35.129990 12.044024,36.117474 
z"/>
<path fill="#D6742D" opacity="1.000000" stroke="none" 
	d="
M25.934141,20.279877 
	C26.806276,20.005442 27.536367,19.981527 28.630459,19.918900 
	C29.159948,19.916233 29.325434,19.952280 29.933580,20.233932 
	C30.905924,21.006788 31.435604,21.534037 32.107059,22.311909 
	C32.823570,23.062576 33.398300,23.562616 33.973034,24.062656 
	C34.413967,26.796104 34.854900,29.529552 34.795212,32.579205 
	C33.195351,32.678486 32.096111,32.461563 30.586475,32.186272 
	C29.088287,32.284126 28.000490,32.440357 26.903111,32.474854 
	C26.893526,32.353123 26.977444,32.123775 26.977444,32.123775 
	C25.343126,30.310911 23.708809,28.498047 22.013004,26.101089 
	C21.964575,25.340891 21.977631,25.164787 21.990685,24.988686 
	C22.586330,24.175657 23.181976,23.362629 23.928310,22.284779 
	C24.650030,21.523438 25.221064,21.026918 25.934141,20.279877 
z"/>
<path fill="#F7B315" opacity="1.000000" stroke="none" 
	d="
M30.996870,32.244640 
	C32.096111,32.461563 33.195351,32.678486 34.633339,32.910809 
	C34.975578,33.722694 34.979061,34.519184 34.972679,35.713913 
	C34.522297,36.160107 34.081783,36.208057 33.325691,36.367657 
	C32.566071,36.373692 32.122032,36.268074 31.339779,35.717056 
	C31.000002,34.262650 30.998436,33.253643 30.996870,32.244640 
z"/>
<path fill="#F7B418" opacity="1.000000" stroke="none" 
	d="
M31.965284,22.061287 
	C31.435604,21.534037 30.905924,21.006788 30.184277,20.275072 
	C30.770018,19.392874 31.547726,18.715141 32.672340,18.023567 
	C33.316330,18.796570 33.613407,19.583414 33.659607,20.731823 
	C32.927578,21.416021 32.446434,21.738653 31.965284,22.061287 
z"/>
<path fill="#FFFFFF" opacity="1.000000" stroke="none" 
	d="
M33.334164,17.035305 
	C30.270607,16.263849 30.573257,14.841185 32.701717,13.020754 
	C33.217094,14.209860 33.419758,15.548974 33.334164,17.035305 
z"/>
<path fill="#F7B214" opacity="1.000000" stroke="none" 
	d="
M32.107059,22.311911 
	C32.446434,21.738653 32.927578,21.416021 33.701035,21.045626 
	C33.991993,21.763548 33.990643,22.529236 33.981163,23.678789 
	C33.398300,23.562616 32.823570,23.062576 32.107059,22.311911 
z"/>
<path fill="#BB5A15" opacity="1.000000" stroke="none" 
	d="
M9.052838,22.264482 
	C9.108734,22.037870 9.498224,22.000750 10.149397,21.989815 
	C13.240249,21.970127 15.679927,21.961376 18.119606,21.952623 
	C18.119606,21.952623 18.546659,22.011604 18.758572,22.050426 
	C18.990204,22.384182 19.043509,22.672915 19.111010,23.610538 
	C19.060925,24.843143 19.030235,25.420656 18.999546,25.998169 
	C16.299288,25.999426 13.599032,26.000683 10.438021,25.660929 
	C9.616114,24.528734 9.254963,23.737549 8.893812,22.946365 
	C8.893812,22.946365 8.996943,22.491095 9.052838,22.264482 
z"/>
<path fill="#B95715" opacity="1.000000" stroke="none" 
	d="
M8.615484,23.097221 
	C9.254963,23.737549 9.616114,24.528734 9.988651,25.659920 
	C9.349430,26.012012 8.698822,26.024101 7.723343,26.042133 
	C7.711367,25.114746 8.024261,24.181412 8.615484,23.097221 
z"/>
<path fill="#F9BC29" opacity="1.000000" stroke="none" 
	d="
M28.055458,36.375519 
	C26.971628,36.368599 25.894281,36.250755 24.409653,35.738308 
	C24.002241,34.422390 24.002111,33.501080 24.001982,32.579765 
	C24.211943,32.548241 24.421906,32.516712 25.139347,32.608688 
	C26.073004,32.804775 26.499187,32.877357 27.163715,33.193680 
	C27.609758,34.306755 27.817457,35.176094 28.025156,36.045429 
	C28.025156,36.045429 28.061943,36.264595 28.055458,36.375519 
z"/>
<path fill="#FAC033" opacity="1.000000" stroke="none" 
	d="
M23.635307,32.473137 
	C24.002111,33.501080 24.002241,34.422390 24.003708,35.694031 
	C23.253687,36.076344 22.502329,36.108334 21.376049,35.732819 
	C20.999784,34.367706 20.998442,33.410095 20.997099,32.452488 
	C21.754278,32.423828 22.511456,32.395168 23.635307,32.473137 
z"/>
<path fill="#FBC43B" opacity="1.000000" stroke="none" 
	d="
M20.627697,32.360043 
	C20.998442,33.410095 20.999784,34.367706 21.002251,35.687065 
	C20.556374,36.133240 20.109375,36.217663 19.334793,36.398880 
	C18.841465,36.415665 18.675716,36.335655 18.255703,35.782372 
	C17.999247,34.346512 17.997059,33.383926 17.994873,32.421341 
	C18.749346,32.370094 19.503820,32.318844 20.627697,32.360043 
z"/>
<path fill="#FBC843" opacity="1.000000" stroke="none" 
	d="
M17.623768,32.340664 
	C17.997059,33.383926 17.999247,34.346512 18.002655,35.671982 
	C17.252901,36.070835 16.501925,36.106804 15.376194,35.730743 
	C14.999194,34.352722 14.996948,33.386730 14.994702,32.420734 
	C15.747355,32.367153 16.500008,32.313572 17.623768,32.340664 
z"/>
<path fill="#FCCB4C" opacity="1.000000" stroke="none" 
	d="
M14.621702,32.339130 
	C14.996948,33.386730 14.999194,34.352722 15.002672,35.682819 
	C14.263788,36.090481 13.523672,36.134041 12.413790,36.147537 
	C12.025451,35.129990 12.006879,34.142502 11.983643,32.786659 
	C12.735554,32.364712 13.492128,32.311119 14.621702,32.339130 
z"/>
<path fill="#B95715" opacity="1.000000" stroke="none" 
	d="
M19.361309,26.000937 
	C19.030235,25.420656 19.060925,24.843143 19.132719,23.830872 
	C19.909235,23.853670 20.644648,24.311228 21.685371,24.878735 
	C21.977631,25.164787 21.964575,25.340891 21.917837,25.780273 
	C21.163795,26.030268 20.443432,26.016987 19.361309,26.000937 
z"/>
<path fill="#FAC033" opacity="1.000000" stroke="none" 
	d="
M26.925369,32.949940 
	C26.499187,32.877357 26.073004,32.804775 25.456266,32.640106 
	C25.642332,32.442020 26.018953,32.336014 26.686508,32.176891 
	C26.977444,32.123775 26.893526,32.353123 26.914843,32.560810 
	C26.936159,32.768497 26.925369,32.949940 26.925369,32.949940 
z"/>
<path fill="#BD5E15" opacity="1.000000" stroke="none" 
	d="
M17.984119,21.696829 
	C15.679927,21.961376 13.240249,21.970127 10.343767,21.967663 
	C9.886964,21.956448 10.002149,21.493826 10.058519,21.262205 
	C10.546848,20.742414 10.978806,20.454243 12.072319,20.074200 
	C13.857190,19.974501 14.980504,19.966677 16.103819,19.958853 
	C16.685423,20.452913 17.267027,20.946974 17.984119,21.696829 
z"/>
<path fill="#BF6115" opacity="1.000000" stroke="none" 
	d="
M15.945078,19.677422 
	C14.980504,19.966677 13.857190,19.974501 12.312538,19.969891 
	C12.201241,19.501417 12.511279,19.045380 12.931073,18.335213 
	C13.955998,18.519382 14.871168,18.957685 15.945078,19.677422 
z"/>
<path fill="#F8B81F" opacity="1.000000" stroke="none" 
	d="
M27.163715,33.193680 
	C26.925369,32.949940 26.936159,32.768497 26.924427,32.682541 
	C28.000490,32.440357 29.088287,32.284126 30.586475,32.186272 
	C30.998436,33.253643 31.000002,34.262650 31.002541,35.654617 
	C30.257956,36.068279 29.512392,36.098972 28.395992,36.087547 
	C27.817457,35.176094 27.609758,34.306755 27.163715,33.193680 
z"/>
</svg>